<svg xmlns="http://www.w3.org/2000/svg" viewBox="0 0 2431.54 1624.35"><defs><style>.cls-1{fill:#fff;}.cls-2{fill:#c1b6d9;}.cls-3{fill:#a296c7;}.cls-4{fill:#f79d4c;}.cls-5{fill:#41327a;}.cls-6{fill:#f3809d;}.cls-7{fill:#57c7df;}.cls-8{fill:#fcc25d;}.cls-9{fill:#2e2662;}.cls-10{fill:#12a0bf;}.cls-11{fill:#f593a8;}.cls-12{fill:#f9ad99;}</style></defs><g id="Capa_2" data-name="Capa 2"><g id="Layer_2" data-name="Layer 2"><path class="cls-1" d="M209.33,1619.1s-331.47-312.27,1-544.57,381.26-18.32,427.18-329.09S737.65,7,1187,58.67s509.62,169.54,475.18,396.18,1.28,585.42,299.14,513.67,667,653.92,326,653.92C1949.19,1622.44,209.33,1619.1,209.33,1619.1Z"/><path class="cls-2" d="M432.55,1619.52S153.19,1390.26,490,1195.08c232.06-117.77,391.62-11.45,548.78-327.2s790.55-131.22,790.55,235.19,604.84,157.07,458,508.87C2154.77,1622.44,432.55,1619.52,432.55,1619.52Z"/><path class="cls-3" d="M2292.55,1617.19a5.26,5.26,0,0,1-5.26,5.25H296.64a5.25,5.25,0,0,1-5.25-5.25h0a5.25,5.25,0,0,1,5.25-5.25H2287.29a5.26,5.26,0,0,1,5.26,5.25Z"/><path class="cls-3" d="M151.28,1619.1a5.25,5.25,0,0,0,5.25,5.25H262.12a5.25,5.25,0,0,0,5.25-5.25h0a5.25,5.25,0,0,0-5.25-5.25H156.53a5.25,5.25,0,0,0-5.25,5.25Z"/><path class="cls-3" d="M2315.45,1614.17a5.25,5.25,0,0,0,5.25,5.26h105.59a5.25,5.25,0,0,0,5.25-5.26h0a5.25,5.25,0,0,0-5.25-5.25H2320.7a5.25,5.25,0,0,0-5.25,5.25Z"/><rect class="cls-4" x="938.25" y="403.59" width="875.4" height="1208.35"/><rect class="cls-1" x="988.48" y="454.85" width="774.95" height="1105.82"/><path class="cls-5" d="M1740.24,759.39H1555.76V574.92h184.48Zm-165.35-19.13H1721.1V594.05H1574.89Z"/><path class="cls-3" d="M1528.16,638c0,3.93-6.37,7.11-14.23,7.11h-488c-7.86,0-14.23-3.18-14.23-7.11h0c0-3.93,6.37-7.11,14.23-7.11h488c7.86,0,14.23,3.18,14.23,7.11Z"/><path class="cls-3" d="M1362.31,674.27c0,3.93-4.32,7.11-9.65,7.11H1021.33c-5.34,0-9.66-3.18-9.66-7.11h0c0-3.93,4.32-7.11,9.66-7.11h331.33c5.33,0,9.65,3.18,9.65,7.11Z"/><path class="cls-3" d="M1252.61,712.58a6.89,6.89,0,0,1-6.64,7.12H1018.31a6.89,6.89,0,0,1-6.64-7.12h0a6.89,6.89,0,0,1,6.64-7.11H1246a6.89,6.89,0,0,1,6.64,7.11Z"/><path class="cls-6" d="M1269.91,593.71a18.8,18.8,0,0,1-18.79,18.8H1038.76a18.8,18.8,0,0,1-18.8-18.8h0a18.8,18.8,0,0,1,18.8-18.79h212.36a18.79,18.79,0,0,1,18.79,18.79Z"/><path class="cls-5" d="M1740.24,989.27H1555.76V804.79h184.48Zm-165.35-19.14H1721.1V823.92H1574.89Z"/><path class="cls-3" d="M1528.16,867.88c0,3.93-6.37,7.11-14.23,7.11h-488c-7.86,0-14.23-3.18-14.23-7.11h0c0-3.93,6.37-7.11,14.23-7.11h488c7.86,0,14.23,3.18,14.23,7.11Z"/><path class="cls-3" d="M1362.31,904.14c0,3.93-4.32,7.11-9.65,7.11H1021.33c-5.34,0-9.66-3.18-9.66-7.11h0c0-3.93,4.32-7.11,9.66-7.11h331.33c5.33,0,9.65,3.18,9.65,7.11Z"/><path class="cls-3" d="M1252.61,942.46a6.89,6.89,0,0,1-6.64,7.11H1018.31a6.89,6.89,0,0,1-6.64-7.11h0a6.89,6.89,0,0,1,6.64-7.12H1246a6.89,6.89,0,0,1,6.64,7.12Z"/><path class="cls-7" d="M1269.91,823.58a18.8,18.8,0,0,1-18.79,18.8H1038.76a18.8,18.8,0,0,1-18.8-18.8h0a18.8,18.8,0,0,1,18.8-18.79h212.36a18.79,18.79,0,0,1,18.79,18.79Z"/><path class="cls-5" d="M1740.24,1218.29H1555.76V1033.81h184.48Zm-165.35-19.13H1721.1V1053H1574.89Z"/><path class="cls-3" d="M1528.16,1096.9c0,3.93-6.37,7.12-14.23,7.12h-488c-7.86,0-14.23-3.19-14.23-7.12h0c0-3.92,6.37-7.11,14.23-7.11h488c7.86,0,14.23,3.19,14.23,7.11Z"/><path class="cls-3" d="M1362.31,1133.16c0,3.93-4.32,7.12-9.65,7.12H1021.33c-5.34,0-9.66-3.19-9.66-7.12h0c0-3.92,4.32-7.11,9.66-7.11h331.33c5.33,0,9.65,3.19,9.65,7.11Z"/><path class="cls-3" d="M1252.61,1171.48a6.88,6.88,0,0,1-6.64,7.11H1018.31a6.88,6.88,0,0,1-6.64-7.11h0a6.88,6.88,0,0,1,6.64-7.11H1246a6.88,6.88,0,0,1,6.64,7.11Z"/><path class="cls-8" d="M1269.91,1052.61a18.79,18.79,0,0,1-18.79,18.79H1038.76a18.8,18.8,0,0,1-18.8-18.79h0a18.8,18.8,0,0,1,18.8-18.8h212.36a18.8,18.8,0,0,1,18.79,18.8Z"/><path class="cls-5" d="M1740.24,1440.61H1555.76V1256.13h184.48Zm-165.35-19.13H1721.1V1275.27H1574.89Z"/><path class="cls-3" d="M1528.16,1319.22c0,3.93-6.37,7.12-14.23,7.12h-488c-7.86,0-14.23-3.19-14.23-7.12h0c0-3.92,6.37-7.11,14.23-7.11h488c7.86,0,14.23,3.19,14.23,7.11Z"/><path class="cls-3" d="M1362.31,1355.48c0,3.93-4.32,7.12-9.65,7.12H1021.33c-5.34,0-9.66-3.19-9.66-7.12h0c0-3.92,4.32-7.11,9.66-7.11h331.33c5.33,0,9.65,3.19,9.65,7.11Z"/><path class="cls-3" d="M1252.61,1393.8a6.88,6.88,0,0,1-6.64,7.11H1018.31a6.88,6.88,0,0,1-6.64-7.11h0a6.88,6.88,0,0,1,6.64-7.11H1246a6.88,6.88,0,0,1,6.64,7.11Z"/><path class="cls-5" d="M1269.91,1274.93a18.79,18.79,0,0,1-18.79,18.79H1038.76a18.8,18.8,0,0,1-18.8-18.79h0a18.8,18.8,0,0,1,18.8-18.8h212.36a18.8,18.8,0,0,1,18.79,18.8Z"/><path class="cls-5" d="M1475,390.27l-49.27-74.62h-97.6l-51.18,74.62H1142v132h467.84v-132Zm-98.46-46.13a19.7,19.7,0,1,1-19.7,19.7A19.7,19.7,0,0,1,1376.52,344.14Z"/><path class="cls-9" d="M1475,390.27l-49.27-74.62h-97.59l-51.18,74.62H1142v132l467.84-132Zm-98.45-6.73a19.7,19.7,0,1,1,19.7-19.7A19.7,19.7,0,0,1,1376.52,383.54Z"/><polygon class="cls-10" points="1659.93 644.47 1623.86 605.28 1584.02 645.14 1584.01 645.13 1659.11 720.26 1786.05 593.34 1757.04 563.85 1659.93 644.47"/><polygon class="cls-10" points="1659.93 889.22 1623.86 850.02 1584.02 889.88 1584.01 889.88 1659.11 965 1786.05 838.08 1757.04 808.59 1659.93 889.22"/><polygon class="cls-10" points="1659.93 1111.53 1623.86 1072.34 1584.02 1112.2 1584.01 1112.19 1659.11 1187.32 1786.05 1060.4 1757.04 1030.91 1659.93 1111.53"/><polygon class="cls-10" points="1659.93 1328.75 1623.86 1289.57 1584.02 1329.42 1584.01 1329.42 1659.11 1404.54 1786.05 1277.62 1757.04 1248.13 1659.93 1328.75"/><path class="cls-5" d="M2251.39,1300.22a137.32,137.32,0,0,0-2.83-30.31c-30-.87-52.74-3.86-52.71-7.23s21.06-5.77,49.4-6.28c-.36-1.25-.74-2.51-1.13-3.78a165.72,165.72,0,0,0-10.76-26.62c-23.86-1.23-40.68-3.85-40.65-6.75,0-2.58,13.4-4.71,33.2-5.73-35-50.63-86.88-26.45-94.22,3.77-7-5.69-45.08-35-73.49-21.89-19.76,9.12-29.78,36.52-29.78,81.45V1479h5V1276.85c0-42.8,9-68.68,26.86-76.91,24.4-11.25,58.88,13.86,67.32,20.49-15.54,1.9-75.14,13.2-33,72.47,14.37-21.26,26.32-35.55,28.89-34,2.74,1.71-6,20.79-20.24,45.06,4.39,5.22,9.49,10.75,15.37,16.63q2.73,3.38,5.46,6.5c16.71-25.73,31.48-44,34.37-42.23s-7.86,24.81-24.71,52.54a141.76,141.76,0,0,0,23.48,19c14.81-22.08,27.26-37.07,29.9-35.43s-5.22,19.08-18.33,41.77c41.72,19.22,75.32-5.06,81.57-49.88-23.2-1.25-39.44-3.83-39.42-6.68S2227.69,1301.05,2251.39,1300.22Z"/><path class="cls-3" d="M1849.84,1227a137.32,137.32,0,0,1,2.83-30.31c30-.87,52.74-3.86,52.71-7.23s-21.06-5.77-49.41-6.28c.37-1.25.75-2.52,1.14-3.78a165.72,165.72,0,0,1,10.76-26.62c23.86-1.23,40.68-3.85,40.65-6.75,0-2.58-13.4-4.71-33.2-5.73,35-50.63,86.88-26.45,94.22,3.77,7-5.69,45.08-35,73.49-21.89,19.76,9.11,29.78,36.52,29.78,81.45v202.12h-5V1203.65c0-42.81-9-68.68-26.86-76.91-24.4-11.25-58.87,13.86-67.32,20.49,15.54,1.9,75.14,13.2,33,72.47-14.36-21.26-26.32-35.55-28.89-34-2.74,1.71,6,20.79,20.24,45.06-4.39,5.22-9.49,10.75-15.37,16.63q-2.73,3.38-5.46,6.5c-16.71-25.73-31.48-44-34.37-42.23s7.86,24.81,24.71,52.54a141.76,141.76,0,0,1-23.48,19c-14.81-22.08-27.26-37.07-29.89-35.43s5.21,19.08,18.32,41.77c-41.72,19.21-75.32-5.06-81.57-49.88,23.2-1.25,39.44-3.84,39.42-6.68S1873.54,1227.85,1849.84,1227Z"/><polygon class="cls-11" points="1924.62 1374.18 1924.62 1404.06 1948.98 1404.06 1982.53 1614.17 2130.05 1614.17 2159.1 1404.06 2183.46 1404.06 2183.46 1374.18 1924.62 1374.18"/><path class="cls-6" d="M1949,1404.06l33.55,210.11h147.52l1.5-10.82C2096.53,1560.39,1949,1404.06,1949,1404.06Z"/><path class="cls-9" d="M541.39,1569.46s6.38,1.3,9.26,11.62,33.09,18.59,42.44,22.55,15.46,7.19,7.19,10.07-70.49,0-70.49,0l-15.28-10.25-1.26,9.17-11.51.36s-3.37-46,9.47-41.87C523.32,1571.62,541.39,1569.46,541.39,1569.46Z"/><path class="cls-9" d="M349.5,1569.46s6.38,1.3,9.26,11.62,33.08,18.59,42.43,22.55,15.47,7.19,7.2,10.07-70.49,0-70.49,0l-15.28-10.25-1.26,9.17-11.51.36s-3.37-46,9.47-41.87C331.43,1571.62,349.5,1569.46,349.5,1569.46Z"/><path class="cls-12" d="M317.93,1566c.31,8.5,6.35,15.19,13.49,14.93l5.18-.18c7.15-.26,12.7-7.36,12.39-15.87l-1.54-42.78c-.31-8.51-6.34-15.19-13.49-14.94l-5.18.19c-7.15.25-12.69,7.36-12.39,15.87Z"/><path class="cls-12" d="M510.33,1566.14c.3,8.5,6.34,15.19,13.49,14.93l5.18-.19c7.14-.25,12.69-7.36,12.38-15.87l-1.54-42.77c-.3-8.51-6.34-15.2-13.49-14.94l-5.18.18c-7.15.26-12.69,7.37-12.38,15.87Z"/><path class="cls-12" d="M286.33,1058.93s11.33,37.37.07,30.36c-9.47-9.48,7.75,11.33-13.82,17.26-22.66,0-15-39.1-10.17-47.74C271,1056.93,286.33,1058.93,286.33,1058.93Z"/><path class="cls-10" d="M519.85,804.67s119,1.75,133.49-16.59c5.88-13.87,55.52-123.29,55.52-123.29l-25.54-8.44s-52.24,85.14-54.23,89.11-187-16.28-211.45,3.34C456.31,769.1,519.85,804.67,519.85,804.67Z"/><path class="cls-9" d="M500.49,991.69l62.76,232.54-22.56,321.52-30.85.53s-53.15-207.43-22.29-298.52c-1.1-17.38-149-193.09-126.53-256.86C439.62,1000.36,500.49,991.69,500.49,991.69Z"/><path class="cls-11" d="M180.09,712.1c0,8.21-8.07,14.87-18,14.87H89.92c-10,0-18-6.66-18-14.87V679.87c0-8.22,8.08-14.88,18-14.88h72.14c10,0,18,6.66,18,14.88Z"/><polygon class="cls-2" points="907.22 695.98 767.45 744.95 767.45 647.01 907.22 695.98"/><path class="cls-3" d="M787.26,696a104.9,104.9,0,0,0-19.81,1.72V745l139.77-49Z"/><path class="cls-5" d="M787.26,730.07c0,8.22-8.08,14.88-18,14.88H163.56c-10,0-18-6.66-18-14.88V661.89c0-8.22,8.08-14.88,18-14.88H769.22c10,0,18,6.66,18,14.88Z"/><rect class="cls-3" x="174.08" y="675.15" width="36.25" height="41.67"/><rect class="cls-2" x="210.33" y="680.49" width="229.63" height="30.99"/><rect class="cls-11" x="596.24" y="647.01" width="101.97" height="97.94"/><path class="cls-5" d="M439.08,994.16l14.82,170L423,1283.4,348.1,1540.32l-30.84.34S303,1311.34,358.44,1244c-.24-29.22-51.82-196.47-15.91-256.07C400.49,997.11,439.08,994.16,439.08,994.16Z"/><path class="cls-7" d="M266.35,916c28.08-122.54,89.27-174.12,89.27-174.12,78.87-59.18,147.26-6.5,157.47,4.94,14.19,30.81,2.6,206.82-12.6,244.91-54.51,12.36-158.44-3.26-158.44-3.26s-3.2-55.9-3-114.8c-13.63,22.57-29.66,51.88-38.22,77.31-7.39,47.8-14.29,108.41-14.29,108.41H262.41S256,937.15,266.35,916Z"/><path class="cls-12" d="M695.26,642.47S685,681.85,681.93,666.1s-34.29,23.9-34.7-4.45c-.48-33.22,30.22-39.8,30.22-39.8Z"/><path class="cls-12" d="M470.47,630s3.6,60.36-11.59,64.35c-3.38.89-7.55,2.61-12.18,4.12l-1.81,39.79s-7.73,15.25-20.38,1.26c-2.62-8.1-1.81-25.3-.94-39.29-10.34-3-25.34-17.93-32.7-42.91C384.07,614.36,453.28,593.24,470.47,630Z"/><path class="cls-9" d="M446.89,592.84c10.75-13,40-17.18,42.54,12.39s-35.75,31-66.7,28c-13,12-1.76,31.76,7.51,32.11,10.62.39,40.13.36,40.13.36s2,21.75-9.9,28c-41.4,21.16-57.19-42.49-60.32-42.49a5.7,5.7,0,1,0,0,11.39,6.83,6.83,0,0,0,.78-.06c4.8,12,21.41,30.87,23.51,36.16-2.51,9.08-23.14-7.67-35.91-33.1C340.17,591.51,442,598.73,446.89,592.84Z"/><path class="cls-1" d="M1854.59,911.25H1845v-23h9.56Zm0-42.1H1845v-23h9.56Zm0-42.09H1845v-23h9.56Zm0-42.1H1845V762h9.56Zm0-42.1H1845v-23h9.56Zm0-42.1H1845v-23h9.56Zm0-42.1H1845v-23h9.56Zm0-42.1H1845v-23h9.56Zm0-42.09H1845v-23h9.56Zm0-42.1H1845v-23h9.56Zm0-42.1H1845v-23h9.56Zm0-42.1H1845v-23h9.56Zm0-42.1H1845v-23h9.56Zm-13.06-29h-23v-9.57h23Zm-42.1,0h-23v-9.57h23Zm-42.1,0h-23v-9.57h23Zm-42.1,0H1701.4l.87-5.54c0-.05.82-5.22,1.27-14.15l9.56.48c-.2,3.94-.46,7.18-.71,9.64h2.84Zm-11.45-38.48c-.17-7.44-.66-15-1.43-22.58l9.52-1c.8,7.79,1.3,15.64,1.48,23.33Zm-4-41.27c-1.24-7.41-2.79-14.86-4.6-22.14l9.28-2.3c1.87,7.51,3.47,15.2,4.76,22.86ZM1690.08,257c-2.29-7.15-4.88-14.3-7.71-21.23l8.86-3.61c2.93,7.16,5.6,14.54,8,21.94Zm-15.38-38.4c-3.29-6.73-6.89-13.42-10.7-19.87l8.24-4.87c3.94,6.67,7.66,13.58,11.06,20.55Zm-20.8-35.73c-4.22-6.16-8.74-12.25-13.46-18.1l7.45-6c4.87,6,9.55,12.33,13.91,18.7Zm-25.72-32.35c-5-5.5-10.38-10.9-15.86-16.07l6.56-7c5.65,5.32,11.15,10.89,16.35,16.56ZM1598.24,122c-5.7-4.77-11.69-9.45-17.82-13.92l5.64-7.73c6.3,4.6,12.46,9.41,18.32,14.31ZM1564.9,97.36c-6.22-4.06-12.72-8-19.32-11.81l4.75-8.3c6.76,3.86,13.42,7.94,19.8,12.1ZM1529,76.55c-6.59-3.38-13.47-6.69-20.44-9.83l3.93-8.72c7.12,3.2,14.14,6.58,20.88,10Zm-37.84-17.26c-6.9-2.79-14.05-5.5-21.25-8l3.19-9c7.34,2.6,14.62,5.36,21.64,8.2Zm-39.22-14.08c-7.09-2.24-14.43-4.41-21.82-6.45l2.54-9.23c7.51,2.07,15,4.28,22.16,6.56ZM1411.72,34c-7.25-1.78-14.72-3.48-22.21-5.06l2-9.36c7.59,1.6,15.17,3.32,22.52,5.12Zm-40.85-8.74c-7.34-1.36-14.9-2.65-22.49-3.83l1.48-9.45c7.67,1.19,15.32,2.5,22.75,3.87ZM989,21.09,988,11.58l5.82-.64,1,9.51Zm340.55-2.4c-7.43-1-15-1.92-22.66-2.74l1-9.52c7.68.84,15.38,1.77,22.89,2.77Zm-315.77-.22L1012.85,9c7.66-.76,15.37-1.49,22.91-2.15l.84,9.53C1029.09,17,1021.42,17.71,1013.79,18.47Zm41.83-3.72-.74-9.54c7.69-.6,15.42-1.16,23-1.66l.63,9.55C1071,13.59,1063.28,14.15,1055.62,14.75ZM1288,14.07c-7.45-.67-15.11-1.27-22.77-1.79l.65-9.54c7.72.52,15.46,1.13,23,1.8ZM1097.52,12,1097,2.4c7.73-.42,15.47-.79,23-1.1l.4,9.56C1112.9,11.16,1105.2,11.53,1097.52,12Zm148.66-.79c-7.5-.39-15.19-.7-22.84-.95l.3-9.56c7.71.25,15.46.57,23,1Zm-106.73-1-.27-9.56c7.68-.23,15.43-.39,23-.5l.13,9.57C1154.79,9.8,1147.09,10,1139.45,10.19Zm64.84-.44c-7.37-.12-15-.18-22.53-.18h-.35V0h.35c7.64,0,15.27.06,22.69.19Z"/><path class="cls-1" d="M37.91,1481.07q-1.77-3.61-3.43-7.22l8.68-4c1.09,2.34,2.21,4.7,3.35,7.05Zm-11.16-25c-2.95-7.22-5.69-14.54-8.14-21.77l9.05-3.08c2.4,7,5.07,14.19,8,21.23Zm-13.9-40.28c-2.12-7.49-4-15.09-5.59-22.59l9.35-2c1.55,7.29,3.38,14.69,5.44,22Zm-9.08-41.68c-1.18-7.68-2.09-15.46-2.71-23.14l9.53-.77c.61,7.45,1.5,15,2.64,22.46Zm-3.7-42.54Q0,1328.28,0,1325c0-5.54.15-11.14.43-16.65l9.56.49c-.28,5.36-.42,10.79-.42,16.16q0,3.21.06,6.45Zm11.47-41.56L2,1289c.87-7.65,2-15.4,3.45-23l9.4,1.76C13.5,1275.1,12.38,1282.62,11.54,1290.05Zm7.34-40.77L9.59,1247c1.84-7.44,4-15,6.35-22.39l9.11,2.92C22.74,1234.72,20.67,1242,18.88,1249.28ZM31.3,1209.7l-8.94-3.4c2.72-7.15,5.74-14.38,9-21.46l8.72,4C36.89,1195.7,34,1202.74,31.3,1209.7Zm17-37.92-8.51-4.38c3.51-6.8,7.28-13.65,11.21-20.35l8.25,4.85C55.37,1158.45,51.68,1165.13,48.26,1171.78Zm20.9-36-8-5.2c4.16-6.41,8.57-12.85,13.12-19.15l7.76,5.61C77.55,1123.22,73.23,1129.52,69.16,1135.79Zm24.25-33.88L85.89,1096c4.72-6,9.68-12,14.74-17.91l7.25,6.25C102.91,1090.1,98.05,1096,93.41,1101.91Zm27.12-31.7-7-6.52c5.21-5.61,10.65-11.21,16.14-16.64l6.72,6.81C131,1059.19,125.65,1064.69,120.53,1070.21Zm29.6-29.44-6.47-7c5.7-5.25,11.56-10.4,17.41-15.32l6.16,7.32C161.48,1030.56,155.73,1035.62,150.13,1040.77Zm31.85-27-5.87-7.55c6.31-4.9,12.61-9.54,18.71-13.78l5.46,7.86C194.31,1004.47,188.15,1009,182,1013.8Zm33.15-29.64-9.57-.1c.08-7.38.38-15.19.88-23.21l9.55.6C215.49,969.31,215.21,977,215.13,984.16Zm2.41-41.63-9.52-.94c.73-7.41,1.64-15.14,2.69-23l9.49,1.28C219.15,927.61,218.26,935.24,217.54,942.53ZM223,901.05l-9.45-1.52c1.19-7.42,2.53-15.08,4-22.76l9.4,1.77C225.49,886.14,224.16,893.71,223,901.05Zm7.65-41.2-9.37-2c1.57-7.48,3.25-15.07,5-22.56l9.32,2.18C233.85,844.92,232.19,852.44,230.64,859.85ZM240.11,819l-9.27-2.36c3.38-13.29,5.69-21.17,5.79-21.5l3.64,1.07v-4.5h7.34l-1.8,6.13C245.79,797.9,243.44,805.88,240.11,819Zm-19-17.73h-23v-9.56h23Zm-42.1,0h-23v-9.56h23Zm-42.1,0H114v-9.56h23Zm-42.1,0h-23v-9.56h23Z"/></g></g></svg>