<svg xmlns="http://www.w3.org/2000/svg" viewBox="0 0 224.44 62.35"><defs><style>.cls-1{fill:#fff;fill-rule:evenodd;}</style></defs><title>1235Recurso 2150</title><g id="Capa_2" data-name="Capa 2"><g id="Layer_2" data-name="Layer 2"><path class="cls-1" d="M224.44,30.91a31.44,31.44,0,0,1-62.86,1,.92.92,0,0,1,0-.16v-.28c0-.23,0-.47,0-.7a22.42,22.42,0,0,0-44.83.7c0,.14,0,.44,0,.44a31.44,31.44,0,0,1-62.85,0v-.44c0-.23,0-.47,0-.7A22.42,22.42,0,0,0,9,31.44c0,.14,0,.29,0,.44H0c0-.15,0-.3,0-.44a31.44,31.44,0,0,1,62.86-1,.81.81,0,0,1,0,.16v.28c0,.23,0,.46,0,.7a22.43,22.43,0,0,0,44.84-.7c0-.15,0-.44,0-.44a31.43,31.43,0,0,1,62.84,0,.81.81,0,0,1,0,.16v.28c0,.23,0,.46,0,.7a22.42,22.42,0,0,0,44.83-.7c0-.15,0-.3,0-.44h9C224.44,30.61,224.44,30.76,224.44,30.91Z"/></g></g></svg>