<svg xmlns="http://www.w3.org/2000/svg" viewBox="0 0 240 73.3"><defs><style>.cls-1{fill:#fff;}.cls-2{fill:#c8cce8;}.cls-3,.cls-5{fill:#5f6db2;}.cls-3,.cls-4{fill-rule:evenodd;}.cls-4{fill:#4a5190;}</style></defs><g id="Capa_2" data-name="Capa 2"><g id="Capa_1-2" data-name="Capa 1"><path class="cls-1" d="M73.1,15.2l-.16,55a2.42,2.42,0,0,1-2.42,2.41l-52.08-.16A2.42,2.42,0,0,1,16,70l.21-66.94A2.42,2.42,0,0,1,18.66.67L58.92.8Z"/><path class="cls-2" d="M58.92.8l0,11.93a2.41,2.41,0,0,0,2.39,2.43l11.82,0Z"/><path class="cls-3" d="M28.79,14.27l19.55.06a1,1,0,0,0,0-2l-19.56-.06a1,1,0,0,0-1,1A1,1,0,0,0,28.79,14.27Z"/><path class="cls-3" d="M28.76,23.24,59,23.33a1,1,0,0,0,1-1,1,1,0,0,0-1-1l-30.23-.09a1,1,0,0,0,0,2Z"/><path class="cls-3" d="M28.73,32.21l30.23.1a1,1,0,0,0,0-2l-30.22-.1a1,1,0,0,0,0,2Z"/><path class="cls-3" d="M28.7,41.19l30.23.09a1,1,0,0,0,0-2l-30.22-.09a1,1,0,0,0,0,2Z"/><path class="cls-4" d="M72.44,15.48,64.31,7.15a.67.67,0,0,1,0-1,.66.66,0,0,1,.94,0l8.32,8.53a.7.7,0,0,1,.19.47l-.17,55a3.1,3.1,0,0,1-3.08,3.09.68.68,0,0,1,0-1.35,1.76,1.76,0,0,0,1.74-1.75l.17-54.72Z"/><path class="cls-4" d="M60.76,71.92l-42.32-.13A1.74,1.74,0,0,1,16.71,70l.15-48.23a.68.68,0,0,0-.67-.68.67.67,0,0,0-.67.67L15.37,70a3.09,3.09,0,0,0,3.06,3.1l42.33.14a.67.67,0,0,0,.66-.67A.66.66,0,0,0,60.76,71.92Z"/><path class="cls-4" d="M16.88,12.41l0-9.32a1.75,1.75,0,0,1,1.74-1.74l40.27.12a.67.67,0,0,0,0-1.34L18.66,0a3.08,3.08,0,0,0-3.08,3.09l0,9.32a.69.69,0,0,0,.67.68.67.67,0,0,0,.66-.68Z"/><path class="cls-1" d="M3.76,34.35,29.84,60.68l5.89-2.54,2.53-6L12.16,25.86l-8.4,8.49Z"/><path class="cls-5" d="M3.69,34.42,1.17,31.87a2.42,2.42,0,0,1,0-3.4l5-5.1a2.38,2.38,0,0,1,3.37,0l2.52,2.55-8.41,8.5Z"/><path class="cls-2" d="M29.84,60.68l12.62,4.25-4.2-12.74-2.53,6-5.89,2.54Z"/><path class="cls-4" d="M41.79,64.06,39,55.55a.47.47,0,0,1,.3-.6.47.47,0,0,1,.59.3L43,64.65a.48.48,0,0,1-.12.48.47.47,0,0,1-.48.12l-12.6-4a.62.62,0,0,1-.19-.12L9.8,40.87a.47.47,0,1,1,.67-.67L30.18,60.33l11.61,3.73Z"/><path class="cls-4" d="M4,34.08,1.5,31.53a1.93,1.93,0,0,1,0-2.72l5.05-5.1a1.9,1.9,0,0,1,2.7,0L38,52.54a.47.47,0,0,0,.66-.68L9.91,23a2.84,2.84,0,0,0-4,0l-5,5.09a2.92,2.92,0,0,0,0,4.08l2.53,2.54a.45.45,0,0,0,.66,0,.46.46,0,0,0,0-.67Z"/><path class="cls-1" d="M126.07,27.2H112.82l-5.34,30.67H97.73l5.34-30.67H89.76l1.51-8.48h36.31Z"/><path class="cls-1" d="M144.22,49.49a1.26,1.26,0,0,0,1.43,1.42,4.89,4.89,0,0,0,2.4-.55l-.27,6.15A9,9,0,0,1,142,58.63q-5.93,0-6.57-4.35a8.75,8.75,0,0,1-7.92,4.35q-8.84,0-8.83-7.67a17.16,17.16,0,0,1,.27-2.88L120,41.72a13.52,13.52,0,0,1,4-7.81A11.3,11.3,0,0,1,132.08,31q5,0,6.76,2.34l.27-1.63h8.18l-3,17.13A3.57,3.57,0,0,0,144.22,49.49Zm-15.94-2.61a6.79,6.79,0,0,0-.11,1.36A2.48,2.48,0,0,0,129,50a3.62,3.62,0,0,0,2.72.85A4.35,4.35,0,0,0,135,49.27l1.62-9.13c-.4-.91-1.33-1.36-2.8-1.36q-4.16,0-4.85,4Z"/><path class="cls-1" d="M178.32,37.37a5.6,5.6,0,0,1-1.08,3.31h-8.83a1.25,1.25,0,0,0,.43-1.08,1.39,1.39,0,0,0-.86-1.23,4.65,4.65,0,0,0-2.21-.46q-4,0-4,2.5c0,.65.5,1.13,1.51,1.41a22.87,22.87,0,0,0,3.66.71,40.7,40.7,0,0,1,4.31.79,7.47,7.47,0,0,1,3.66,2,5.51,5.51,0,0,1,1.51,4.08,7.66,7.66,0,0,1-3.58,6.85q-3.59,2.34-10.42,2.34c-4.56,0-7.76-.75-9.59-2.23a5.82,5.82,0,0,1-2.16-4.79,11.12,11.12,0,0,1,.16-1.79l9-.11c-.07.51.22.95.89,1.33a6,6,0,0,0,2.94.57,6.89,6.89,0,0,0,2.8-.41,1.55,1.55,0,0,0,.86-1.55c0-.5-.5-.86-1.51-1.06s-2.24-.37-3.69-.51a36.64,36.64,0,0,1-4.36-.71A7.09,7.09,0,0,1,154,45.3a5.69,5.69,0,0,1-1.51-4.13,8.72,8.72,0,0,1,3.8-7.61q3.8-2.67,11-2.66Q178.32,30.9,178.32,37.37Z"/><path class="cls-1" d="M206.76,50.91a4.44,4.44,0,0,0,2.21-.55l-.27,6.15a9.34,9.34,0,0,1-6.19,2.12c-2.44,0-4.25-.66-5.42-2s-2.07-3.5-2.72-6.58l-.16-.76q-1.12.16-3.39.27l-1.46,8.27h-9.15l7.21-41.28h9.16l-3.12,17.89A11,11,0,0,1,202.08,31q3.66,0,5.41,1.82a6.73,6.73,0,0,1,1.75,4.87q0,5.86-6.09,9.19l.6,2A2.77,2.77,0,0,0,206.76,50.91Zm-9.32-12.57a6.59,6.59,0,0,0-5.17,2.78l-.59,3.59q8-.33,8-4.3a2,2,0,0,0-.56-1.49A2.2,2.2,0,0,0,197.44,38.34Z"/><path class="cls-1" d="M240,37.37a5.6,5.6,0,0,1-1.08,3.31h-8.83a1.25,1.25,0,0,0,.43-1.08,1.39,1.39,0,0,0-.86-1.23,4.65,4.65,0,0,0-2.21-.46q-4,0-4,2.5c0,.65.5,1.13,1.51,1.41a22.87,22.87,0,0,0,3.66.71,40.7,40.7,0,0,1,4.31.79,7.47,7.47,0,0,1,3.66,2,5.51,5.51,0,0,1,1.51,4.08,7.66,7.66,0,0,1-3.58,6.85q-3.58,2.34-10.43,2.34c-4.56,0-7.75-.75-9.58-2.23a5.82,5.82,0,0,1-2.16-4.79,11.12,11.12,0,0,1,.16-1.79l9-.11c-.07.51.22.95.89,1.33a6,6,0,0,0,2.93.57,6.91,6.91,0,0,0,2.81-.41,1.55,1.55,0,0,0,.86-1.55c0-.5-.51-.86-1.51-1.06s-2.24-.37-3.69-.51a36.32,36.32,0,0,1-4.36-.71,7.09,7.09,0,0,1-3.69-2.07,5.69,5.69,0,0,1-1.51-4.13A8.74,8.74,0,0,1,218,33.56q3.81-2.67,11-2.66Q240,30.9,240,37.37Z"/></g></g></svg>